<svg width="80" height="80" viewBox="0 0 80 80" fill="none" xmlns="http://www.w3.org/2000/svg">
<path d="M14.8337 62.2832C18.4126 59.6277 22.3116 57.5305 26.5305 55.9916C30.7488 54.4533 35.2386 53.6842 40 53.6842C44.7614 53.6842 49.2512 54.4533 53.4695 55.9916C57.6884 57.5305 61.5874 59.6277 65.1663 62.2832C67.7839 59.406 69.8579 56.0754 71.3884 52.2916C72.9189 48.5077 73.6842 44.4105 73.6842 40C73.6842 30.6667 70.4035 22.7193 63.8421 16.1579C57.2807 9.59649 49.3333 6.31579 40 6.31579C30.6667 6.31579 22.7193 9.59649 16.1579 16.1579C9.59649 22.7193 6.31579 30.6667 6.31579 40C6.31579 44.4105 7.08105 48.5077 8.61158 52.2916C10.1421 56.0754 12.2161 59.406 14.8337 62.2832ZM40.0011 43.1579C36.1568 43.1579 32.9151 41.8386 30.2758 39.2C27.6358 36.5607 26.3158 33.319 26.3158 29.4747C26.3158 25.6305 27.6351 22.3888 30.2737 19.7495C32.913 17.1095 36.1547 15.7895 39.9989 15.7895C43.8432 15.7895 47.0849 17.1088 49.7242 19.7474C52.3642 22.3867 53.6842 25.6284 53.6842 29.4726C53.6842 33.3168 52.3649 36.5586 49.7263 39.1979C47.087 41.8379 43.8453 43.1579 40.0011 43.1579ZM40 80C34.4456 80 29.2351 78.9554 24.3684 76.8663C19.5018 74.7772 15.2684 71.9323 11.6684 68.3316C8.06772 64.7316 5.22281 60.4983 3.13368 55.6316C1.04456 50.7649 0 45.5544 0 40C0 34.4456 1.04456 29.2351 3.13368 24.3684C5.22281 19.5018 8.06772 15.2684 11.6684 11.6684C15.2684 8.06772 19.5018 5.22281 24.3684 3.13369C29.2351 1.04456 34.4456 0 40 0C45.5544 0 50.7649 1.04456 55.6316 3.13369C60.4983 5.22281 64.7316 8.06772 68.3316 11.6684C71.9323 15.2684 74.7772 19.5018 76.8663 24.3684C78.9554 29.2351 80 34.4456 80 40C80 45.5544 78.9554 50.7649 76.8663 55.6316C74.7772 60.4983 71.9323 64.7316 68.3316 68.3316C64.7316 71.9323 60.4983 74.7772 55.6316 76.8663C50.7649 78.9554 45.5544 80 40 80ZM40 73.6842C43.8 73.6842 47.4639 73.073 50.9916 71.8505C54.5193 70.6274 57.6516 68.9175 60.3884 66.7211C57.6516 64.6046 54.56 62.9554 51.1137 61.7737C47.6667 60.5912 43.9621 60 40 60C36.0379 60 32.3267 60.5842 28.8663 61.7526C25.406 62.9218 22.3211 64.5779 19.6116 66.7211C22.3484 68.9175 25.4807 70.6274 29.0084 71.8505C32.5361 73.073 36.2 73.6842 40 73.6842ZM40 36.8421C42.0947 36.8421 43.8463 36.1375 45.2547 34.7284C46.6639 33.32 47.3684 31.5684 47.3684 29.4737C47.3684 27.3789 46.6639 25.6274 45.2547 24.219C43.8463 22.8098 42.0947 22.1053 40 22.1053C37.9053 22.1053 36.1537 22.8098 34.7453 24.219C33.3361 25.6274 32.6316 27.3789 32.6316 29.4737C32.6316 31.5684 33.3361 33.32 34.7453 34.7284C36.1537 36.1375 37.9053 36.8421 40 36.8421Z" fill="black"/>
</svg>
