<svg width="80" height="80" viewBox="0 0 80 80" fill="none" xmlns="http://www.w3.org/2000/svg">
<path d="M40.0074 80C34.4747 80 29.2744 78.9502 24.4063 76.8505C19.5382 74.7509 15.3039 71.9014 11.7032 68.3021C8.10246 64.7028 5.25158 60.4702 3.15053 55.6042C1.05017 50.7382 0 45.5393 0 40.0074C0 34.4747 1.04982 29.2744 3.14947 24.4063C5.24912 19.5382 8.0986 15.3039 11.6979 11.7032C15.2972 8.10246 19.5298 5.25158 24.3958 3.15053C29.2618 1.05017 34.4607 0 39.9926 0C45.5253 0 50.7256 1.04982 55.5937 3.14947C60.4618 5.24912 64.6962 8.0986 68.2969 11.6979C71.8976 15.2972 74.7484 19.5298 76.8495 24.3958C78.9498 29.2618 80 34.4607 80 39.9926C80 45.5253 78.9502 50.7256 76.8505 55.5937C74.7509 60.4618 71.9014 64.6962 68.3021 68.2969C64.7028 71.8976 60.4702 74.7484 55.6042 76.8495C50.7382 78.9498 45.5393 80 40.0074 80ZM40 73.6842C49.4035 73.6842 57.3684 70.4211 63.8947 63.8947C70.4211 57.3684 73.6842 49.4035 73.6842 40C73.6842 39.5088 73.6733 39.0067 73.6516 38.4937C73.6298 37.9807 73.6056 37.5221 73.5789 37.1179C73.3088 39.0716 72.4625 40.6881 71.04 41.9674C69.6182 43.2467 67.9084 43.8863 65.9105 43.8863H56.3558C54.2182 43.8863 52.3884 43.126 50.8663 41.6053C49.3442 40.0839 48.5832 38.2551 48.5832 36.1189V32.2347H33.0368V24.4674C33.0368 22.3312 33.7979 20.4993 35.32 18.9716C36.8421 17.4439 38.6719 16.68 40.8095 16.68H44.6968V15.0611C44.6968 13.2309 45.2502 11.7151 46.3568 10.5137C47.4628 9.31298 48.7961 8.47509 50.3568 8C48.7098 7.46035 47.0309 7.04456 45.32 6.75263C43.6091 6.46141 41.8358 6.31579 40 6.31579C30.5965 6.31579 22.6316 9.57895 16.1053 16.1053C9.57895 22.6316 6.31579 30.5965 6.31579 40V40.6074C6.31579 40.7961 6.32912 40.9986 6.35579 41.2147H26.3158C30.6232 41.2147 34.2912 42.7288 37.32 45.7568C40.3481 48.7856 41.8621 52.4477 41.8621 56.7432V60.6474H30.2021V72.1863C31.7677 72.6719 33.3628 73.0432 34.9874 73.3C36.6126 73.5561 38.2835 73.6842 40 73.6842Z" fill="black"/>
</svg>
